<?xml version="1.0" encoding="UTF-8"?>
<svg id="Layer_2" data-name="Layer 2" xmlns="http://www.w3.org/2000/svg" viewBox="0 0 103.12 106.15">
  <defs>
    <style>
      .cls-1 {
        fill: #fff;
        stroke-width: 0px;
      }
    </style>
  </defs>
  <path class="cls-1" d="m73.95,76.39c15.51-56.78,10.83-61.66,10.83-61.66,0,0-1.76-7.55-11.61-9.76-20.68-3.9-35.07,5.37-35.07,5.37,5.51.29,20.83-3.02,9.8,9.46-9.76,12.68-21.07,31.1-24.29,39.32-10.24,24.78-7.12,33.56-1.46,38.83,5.66,5.27,14.34,5.76,17.85,2.24-8.1-3.32-3.36-16.42,2.73-32.78,6.83-14.83,16.68-12.49,17.76-11.02-5.17,16.2-6.63,33.66-1.66,41.17,4.98,7.51,14.54,5.29,19.71,2.63-3.22-1.46-8.59-8.39-4.59-23.8Zm-11.22-25.07c-3.32-1.46-8.78-2.24-11.56-1.17,3.56-6.63,18-31.02,17.8-35.32,0,0,2.05,12.78-6.24,36.49Z"/>
</svg>